<?xml version="1.0" encoding="UTF-8"?>
<!DOCTYPE svg PUBLIC "-//W3C//DTD SVG 1.1//EN" "http://www.w3.org/Graphics/SVG/1.1/DTD/svg11.dtd">
<svg xmlns="http://www.w3.org/2000/svg" version="1.1" width="500px" height="500px" style="shape-rendering:geometricPrecision; text-rendering:geometricPrecision; image-rendering:optimizeQuality; fill-rule:evenodd; clip-rule:evenodd" xmlns:xlink="http://www.w3.org/1999/xlink">
<g><path style="opacity:0.886" fill="#f2e0ac" d="M 248.5,-0.5 C 249.167,-0.5 249.833,-0.5 250.5,-0.5C 251.11,0.391047 251.443,1.39105 251.5,2.5C 250.167,1.16667 248.833,1.16667 247.5,2.5C 247.557,1.39105 247.89,0.391047 248.5,-0.5 Z"/></g>
<g><path style="opacity:0.494" fill="#f7e2a7" d="M 245.5,6.5 C 245.573,8.02694 244.906,9.02694 243.5,9.5C 243.427,7.97306 244.094,6.97306 245.5,6.5 Z"/></g>
<g><path style="opacity:1" fill="#edc763" d="M 251.5,2.5 C 254.258,5.67802 256.258,9.34469 257.5,13.5C 255.976,12.8262 254.642,11.8262 253.5,10.5C 252.723,8.21876 251.723,6.05209 250.5,4C 248.6,4.21326 246.933,5.04659 245.5,6.5C 245.66,4.84702 246.326,3.51369 247.5,2.5C 248.833,1.16667 250.167,1.16667 251.5,2.5 Z"/></g>
<g><path style="opacity:0.494" fill="#f6d992" d="M 243.5,9.5 C 243.413,12.5779 242.08,14.9112 239.5,16.5C 240.079,13.6689 241.412,11.3356 243.5,9.5 Z"/></g>
<g><path style="opacity:1" fill="#f3bc34" d="M 257.5,13.5 C 257.427,15.0269 258.094,16.0269 259.5,16.5C 260.447,20.4786 260.614,24.4786 260,28.5C 261.117,27.0506 261.784,25.3839 262,23.5C 262.417,24.756 263.25,25.4226 264.5,25.5C 266.25,26.6594 267.25,28.326 267.5,30.5C 267.386,34.6142 269.052,37.6142 272.5,39.5C 274.25,40.6594 275.25,42.326 275.5,44.5C 275.427,46.0269 276.094,47.0269 277.5,47.5C 278.674,48.5137 279.34,49.847 279.5,51.5C 280.038,53.1172 280.371,54.7839 280.5,56.5C 259.473,57.1551 238.806,56.4885 218.5,54.5C 219.11,53.609 219.443,52.609 219.5,51.5C 222.451,50.1906 223.784,47.8573 223.5,44.5C 224.859,43.9935 225.859,42.9935 226.5,41.5C 227.167,41.8333 227.833,42.1667 228.5,42.5C 229.795,39.9881 230.461,37.3214 230.5,34.5C 232.567,30.3126 235.067,26.3126 238,22.5C 239.128,20.6547 239.628,18.6547 239.5,16.5C 242.08,14.9112 243.413,12.5779 243.5,9.5C 244.906,9.02694 245.573,8.02694 245.5,6.5C 246.933,5.04659 248.6,4.21326 250.5,4C 251.723,6.05209 252.723,8.21876 253.5,10.5C 254.642,11.8262 255.976,12.8262 257.5,13.5 Z"/></g>
<g><path style="opacity:0.49" fill="#fadba0" d="M 257.5,13.5 C 258.906,13.9731 259.573,14.9731 259.5,16.5C 258.094,16.0269 257.427,15.0269 257.5,13.5 Z"/></g>
<g><path style="opacity:1" fill="#f1c358" d="M 259.5,16.5 C 261.924,19.0078 263.59,22.0078 264.5,25.5C 263.25,25.4226 262.417,24.756 262,23.5C 261.784,25.3839 261.117,27.0506 260,28.5C 260.614,24.4786 260.447,20.4786 259.5,16.5 Z"/></g>
<g><path style="opacity:1" fill="#efca73" d="M 239.5,16.5 C 239.628,18.6547 239.128,20.6547 238,22.5C 235.067,26.3126 232.567,30.3126 230.5,34.5C 229.833,34.8333 229.167,35.1667 228.5,35.5C 231.775,28.903 235.442,22.5697 239.5,16.5 Z"/></g>
<g><path style="opacity:1" fill="#ebc86f" d="M 267.5,30.5 C 269.924,33.0078 271.59,36.0078 272.5,39.5C 269.052,37.6142 267.386,34.6142 267.5,30.5 Z"/></g>
<g><path style="opacity:1" fill="#f1cd7b" d="M 371.5,34.5 C 371.092,35.6431 370.425,36.6431 369.5,37.5C 364.879,40.6439 359.879,42.9773 354.5,44.5C 359.665,40.4137 365.332,37.0804 371.5,34.5 Z"/></g>
<g><path style="opacity:0.427" fill="#f8e3ad" d="M 132.5,37.5 C 134.153,37.6596 135.486,38.3263 136.5,39.5C 134.62,39.7709 133.287,39.1042 132.5,37.5 Z"/></g>
<g><path style="opacity:0.969" fill="#f1d38f" d="M 136.5,39.5 C 138.882,40.3507 140.882,41.684 142.5,43.5C 139.733,43.1298 137.733,41.7964 136.5,39.5 Z"/></g>
<g><path style="opacity:1" fill="#f1c052" d="M 230.5,34.5 C 230.461,37.3214 229.795,39.9881 228.5,42.5C 227.833,42.1667 227.167,41.8333 226.5,41.5C 225.859,42.9935 224.859,43.9935 223.5,44.5C 224.774,41.2402 226.44,38.2402 228.5,35.5C 229.167,35.1667 229.833,34.8333 230.5,34.5 Z"/></g>
<g><path style="opacity:1" fill="#f3bc34" d="M 132.5,37.5 C 133.287,39.1042 134.62,39.7709 136.5,39.5C 137.733,41.7964 139.733,43.1298 142.5,43.5C 142.833,43.5 143.167,43.5 143.5,43.5C 143.281,44.675 143.614,45.675 144.5,46.5C 147.984,49.2371 151.984,50.9038 156.5,51.5C 156.833,51.5 157.167,51.5 157.5,51.5C 160.608,55.419 164.608,58.419 169.5,60.5C 170.386,61.325 170.719,62.325 170.5,63.5C 172.833,63.5 175.167,63.5 177.5,63.5C 177.833,63.5 178.167,63.5 178.5,63.5C 179.038,65.1172 179.371,66.7839 179.5,68.5C 176.361,68.5988 174.027,69.9321 172.5,72.5C 172.5,73.1667 172.167,73.5 171.5,73.5C 167.583,74.6367 163.583,75.47 159.5,76C 159.957,76.414 160.291,76.914 160.5,77.5C 157.318,78.5551 154.984,80.5551 153.5,83.5C 151.326,83.7497 149.659,84.7497 148.5,86.5C 145.769,87.0271 143.102,87.8604 140.5,89C 139.748,89.6708 139.414,90.5041 139.5,91.5C 136.873,92.1049 134.207,92.6049 131.5,93C 131.957,93.414 132.291,93.914 132.5,94.5C 131.23,95.2876 130.23,96.2876 129.5,97.5C 128.167,97.5 126.833,97.5 125.5,97.5C 125.5,76.8333 125.5,56.1667 125.5,35.5C 127.833,36.1667 130.167,36.8333 132.5,37.5 Z"/></g>
<g><path style="opacity:0.992" fill="#eecc73" d="M 143.5,43.5 C 148.037,45.9301 152.37,48.5968 156.5,51.5C 151.984,50.9038 147.984,49.2371 144.5,46.5C 143.614,45.675 143.281,44.675 143.5,43.5 Z"/></g>
<g><path style="opacity:0.435" fill="#fae4b0" d="M 275.5,44.5 C 276.906,44.9731 277.573,45.9731 277.5,47.5C 276.094,47.0269 275.427,46.0269 275.5,44.5 Z"/></g>
<g><path style="opacity:1" fill="#f3bc34" d="M 371.5,34.5 C 372.832,44.4777 373.499,54.811 373.5,65.5C 373.333,75.8333 373.167,86.1667 373,96.5C 372.667,96.8333 372.333,97.1667 372,97.5C 371.184,96.1772 370.017,95.5106 368.5,95.5C 367.766,94.2921 367.433,92.9587 367.5,91.5C 366.448,91.6495 365.448,91.4828 364.5,91C 365.696,90.3457 365.696,89.8457 364.5,89.5C 362.902,90.4847 361.235,90.6514 359.5,90C 356.407,87.6884 353.074,85.6884 349.5,84C 348.207,83.51 346.873,83.3433 345.5,83.5C 343.47,80.9607 341.136,78.6274 338.5,76.5C 336.253,75.6258 333.92,75.2924 331.5,75.5C 328.24,74.2262 325.24,72.5595 322.5,70.5C 322.027,69.0937 321.027,68.427 319.5,68.5C 319.196,67.8501 318.863,67.1835 318.5,66.5C 322.591,65.1318 325.924,62.7985 328.5,59.5C 329.552,59.6495 330.552,59.4828 331.5,59C 333.319,58.2597 334.652,57.0931 335.5,55.5C 337.848,55.4077 339.514,54.4077 340.5,52.5C 342.848,52.4077 344.514,51.4077 345.5,49.5C 348.578,49.413 350.911,48.0797 352.5,45.5C 352.842,44.6618 353.508,44.3284 354.5,44.5C 359.879,42.9773 364.879,40.6439 369.5,37.5C 370.425,36.6431 371.092,35.6431 371.5,34.5 Z"/></g>
<g><path style="opacity:1" fill="#efcd7a" d="M 223.5,44.5 C 223.784,47.8573 222.451,50.1906 219.5,51.5C 220.079,48.6689 221.412,46.3356 223.5,44.5 Z"/></g>
<g><path style="opacity:0.951" fill="#e0c170" d="M 132.5,37.5 C 130.167,36.8333 127.833,36.1667 125.5,35.5C 125.5,56.1667 125.5,76.8333 125.5,97.5C 126.833,97.5 128.167,97.5 129.5,97.5C 128.235,98.4793 126.901,99.4793 125.5,100.5C 124.334,77.8407 124.167,55.174 125,32.5C 127.824,33.8181 130.324,35.4848 132.5,37.5 Z"/></g>
<g><path style="opacity:1" fill="#f2d589" d="M 352.5,45.5 C 350.911,48.0797 348.578,49.413 345.5,49.5C 347.336,47.412 349.669,46.0787 352.5,45.5 Z"/></g>
<g><path style="opacity:0.95" fill="#e2bf6c" d="M 366.5,95.5 C 367.167,95.5 367.833,95.5 368.5,95.5C 370.017,95.5106 371.184,96.1772 372,97.5C 372.333,97.1667 372.667,96.8333 373,96.5C 373.167,86.1667 373.333,75.8333 373.5,65.5C 373.499,54.811 372.832,44.4777 371.5,34.5C 371.811,33.5222 372.478,32.8555 373.5,32.5C 374.833,55.1667 374.833,77.8333 373.5,100.5C 370.923,99.0569 368.59,97.3902 366.5,95.5 Z"/></g>
<g><path style="opacity:1" fill="#f4d78f" d="M 345.5,49.5 C 344.514,51.4077 342.848,52.4077 340.5,52.5C 341.659,50.7497 343.326,49.7497 345.5,49.5 Z"/></g>
<g><path style="opacity:0.49" fill="#fbe0aa" d="M 219.5,51.5 C 219.443,52.609 219.11,53.609 218.5,54.5C 218.167,54.5 217.833,54.5 217.5,54.5C 217.427,52.9731 218.094,51.9731 219.5,51.5 Z"/></g>
<g><path style="opacity:0.8" fill="#f5d78e" d="M 340.5,52.5 C 339.514,54.4077 337.848,55.4077 335.5,55.5C 336.659,53.7497 338.326,52.7497 340.5,52.5 Z"/></g>
<g><path style="opacity:0.998" fill="#e9bb57" d="M 279.5,51.5 C 280.906,51.9731 281.573,52.9731 281.5,54.5C 281.5,55.5 281.5,56.5 281.5,57.5C 260.167,57.5 238.833,57.5 217.5,57.5C 217.5,56.5 217.5,55.5 217.5,54.5C 217.833,54.5 218.167,54.5 218.5,54.5C 238.806,56.4885 259.473,57.1551 280.5,56.5C 280.371,54.7839 280.038,53.1172 279.5,51.5 Z"/></g>
<g><path style="opacity:0.255" fill="#fdedbd" d="M 217.5,54.5 C 217.5,55.5 217.5,56.5 217.5,57.5C 238.833,57.5 260.167,57.5 281.5,57.5C 281.5,56.5 281.5,55.5 281.5,54.5C 282.391,55.2613 283.058,56.2613 283.5,57.5C 260.833,58.8333 238.167,58.8333 215.5,57.5C 215.942,56.2613 216.609,55.2613 217.5,54.5 Z"/></g>
<g><path style="opacity:0.898" fill="#efce7f" d="M 335.5,55.5 C 334.652,57.0931 333.319,58.2597 331.5,59C 330.552,59.4828 329.552,59.6495 328.5,59.5C 330.336,57.412 332.669,56.0787 335.5,55.5 Z"/></g>
<g><path style="opacity:1" fill="#efc864" d="M 157.5,51.5 C 164.451,55.1373 171.118,59.1373 177.5,63.5C 175.167,63.5 172.833,63.5 170.5,63.5C 170.719,62.325 170.386,61.325 169.5,60.5C 164.608,58.419 160.608,55.419 157.5,51.5 Z"/></g>
<g><path style="opacity:0.984" fill="#f0d182" d="M 328.5,59.5 C 325.924,62.7985 322.591,65.1318 318.5,66.5C 318.863,67.1835 319.196,67.8501 319.5,68.5C 318.078,68.2914 316.745,67.7914 315.5,67C 319.48,63.8454 323.814,61.3454 328.5,59.5 Z"/></g>
<g><path style="opacity:1" fill="#edce84" d="M 178.5,63.5 C 180.138,64.657 181.804,65.8236 183.5,67C 182.255,67.7914 180.922,68.2914 179.5,68.5C 179.371,66.7839 179.038,65.1172 178.5,63.5 Z"/></g>
<g><path style="opacity:1" fill="#f2d387" d="M 179.5,68.5 C 177.664,70.588 175.331,71.9213 172.5,72.5C 174.027,69.9321 176.361,68.5988 179.5,68.5 Z"/></g>
<g><path style="opacity:0.369" fill="#fce5b2" d="M 319.5,68.5 C 321.027,68.427 322.027,69.0937 322.5,70.5C 320.973,70.573 319.973,69.9063 319.5,68.5 Z"/></g>
<g><path style="opacity:1" fill="#efc666" d="M 331.5,75.5 C 333.92,75.2924 336.253,75.6258 338.5,76.5C 341.136,78.6274 343.47,80.9607 345.5,83.5C 340.5,81.3357 335.833,78.669 331.5,75.5 Z"/></g>
<g><path style="opacity:1" fill="#f1cc70" d="M 171.5,73.5 C 165.83,77.337 159.83,80.6704 153.5,83.5C 154.984,80.5551 157.318,78.5551 160.5,77.5C 160.291,76.914 159.957,76.414 159.5,76C 163.583,75.47 167.583,74.6367 171.5,73.5 Z"/></g>
<g><path style="opacity:1" fill="#f3bc33" d="M 261.5,80.5 C 267.106,81.4069 272.773,81.7402 278.5,81.5C 278.833,81.5 279.167,81.5 279.5,81.5C 280.347,82.9663 281.68,83.7996 283.5,84C 287.466,84.8279 291.466,85.3279 295.5,85.5C 300.046,87.8019 304.713,89.8019 309.5,91.5C 312.76,92.8039 316.093,94.1373 319.5,95.5C 323.069,97.1185 326.736,98.4519 330.5,99.5C 330.833,99.5 331.167,99.5 331.5,99.5C 331.5,100.5 331.5,101.5 331.5,102.5C 334.5,102.167 335.833,103.5 335.5,106.5C 339.35,106.97 343.017,107.97 346.5,109.5C 348.404,109.738 349.738,110.738 350.5,112.5C 350.5,113.5 350.5,114.5 350.5,115.5C 351.552,115.351 352.552,115.517 353.5,116C 355.492,118.322 357.825,120.155 360.5,121.5C 361.865,123.591 362.532,125.924 362.5,128.5C 365.211,128.185 367.544,128.852 369.5,130.5C 372.5,133.167 375.5,135.833 378.5,138.5C 379.419,141.089 381.086,143.089 383.5,144.5C 383.562,148.568 385.562,151.235 389.5,152.5C 389.343,153.873 389.51,155.207 390,156.5C 392.917,160.666 395.584,164.999 398,169.5C 398.759,171.063 399.926,172.063 401.5,172.5C 401.833,175.167 402.167,177.833 402.5,180.5C 403.5,180.5 404.5,180.5 405.5,180.5C 405.5,180.833 405.5,181.167 405.5,181.5C 405.166,184.491 406.166,186.824 408.5,188.5C 408.528,191.916 409.528,194.916 411.5,197.5C 411.903,202.196 412.57,206.863 413.5,211.5C 414.065,213.544 415.065,215.21 416.5,216.5C 417.461,218.265 417.795,220.265 417.5,222.5C 417.596,228.373 418.263,234.04 419.5,239.5C 420.751,246.495 420.751,253.495 419.5,260.5C 417.1,271.991 415.1,283.658 413.5,295.5C 411.306,297.221 410.139,299.555 410,302.5C 409,299.833 408,299.833 407,302.5C 407.145,308.284 406.311,313.95 404.5,319.5C 402.166,321.176 401.166,323.509 401.5,326.5C 398.58,328.662 396.913,331.662 396.5,335.5C 396.167,335.5 395.833,335.5 395.5,335.5C 393.656,333.721 392.99,331.388 393.5,328.5C 392.5,328.5 391.5,328.5 390.5,328.5C 390.768,331.119 390.435,333.619 389.5,336C 390.167,336.333 390.833,336.667 391.5,337C 388.376,338.541 388.043,340.375 390.5,342.5C 389.645,343.293 388.811,342.96 388,341.5C 387.498,344.513 386.998,347.513 386.5,350.5C 384.716,351.956 382.716,352.956 380.5,353.5C 380.657,354.873 380.49,356.207 380,357.5C 379.026,355.122 378.359,355.456 378,358.5C 377.331,355.972 376.498,355.972 375.5,358.5C 376.246,359.736 376.579,361.07 376.5,362.5C 373.989,362.162 371.655,362.162 369.5,362.5C 370.04,363.748 370.707,364.915 371.5,366C 370.167,366.333 368.833,366.667 367.5,367C 368.308,367.308 368.975,367.808 369.5,368.5C 368.726,369.711 367.893,369.711 367,368.5C 366.599,370.521 365.432,371.855 363.5,372.5C 362.523,374.411 361.857,376.411 361.5,378.5C 360.833,378.833 360.167,379.167 359.5,379.5C 357.396,379.201 355.396,379.534 353.5,380.5C 354.127,381.417 354.461,382.417 354.5,383.5C 350.989,383.853 347.989,385.187 345.5,387.5C 344.328,387.081 343.328,386.415 342.5,385.5C 341.246,387.259 341.579,388.759 343.5,390C 341.061,391.61 338.394,392.444 335.5,392.5C 335.5,393.5 335.5,394.5 335.5,395.5C 333.517,395.157 332.183,395.824 331.5,397.5C 330.662,397.842 330.328,398.508 330.5,399.5C 328.517,399.157 327.183,399.824 326.5,401.5C 322.375,402.189 318.375,403.356 314.5,405C 313.748,405.671 313.414,406.504 313.5,407.5C 311.302,407.12 309.635,407.787 308.5,409.5C 302.691,410.023 297.024,411.19 291.5,413C 290.619,413.708 289.953,414.542 289.5,415.5C 285.618,416.803 281.618,417.47 277.5,417.5C 272.637,417.181 267.97,417.514 263.5,418.5C 254.5,418.5 245.5,418.5 236.5,418.5C 233.119,418.54 229.786,418.207 226.5,417.5C 214.808,413.919 202.808,411.252 190.5,409.5C 188.165,406.835 185.165,405.502 181.5,405.5C 181.167,405.5 180.833,405.5 180.5,405.5C 178.751,402.625 176.085,401.292 172.5,401.5C 169.792,398.623 166.792,395.957 163.5,393.5C 159.87,391.842 156.203,390.508 152.5,389.5C 151.235,385.562 148.568,383.562 144.5,383.5C 143.089,381.086 141.089,379.419 138.5,378.5C 135.743,374.737 132.41,371.737 128.5,369.5C 128.512,366.858 127.179,365.525 124.5,365.5C 121.549,360.221 118.216,355.221 114.5,350.5C 113.779,348.085 112.446,346.085 110.5,344.5C 111.485,342.902 111.651,341.235 111,339.5C 110.751,340.624 110.251,341.624 109.5,342.5C 108.735,341.388 107.735,340.721 106.5,340.5C 104.872,337.581 103.538,334.581 102.5,331.5C 101.5,331.5 100.5,331.5 99.5,331.5C 99.5,331.167 99.5,330.833 99.5,330.5C 99.2064,327.246 97.873,324.579 95.5,322.5C 95.5,321.5 95.5,320.5 95.5,319.5C 92.7,312.983 90.2,306.316 88,299.5C 87.6232,298.058 86.7899,297.058 85.5,296.5C 85.5,296.167 85.5,295.833 85.5,295.5C 83.5298,284.947 82.0298,274.281 81,263.5C 80.5002,252.505 80.3335,241.505 80.5,230.5C 80.2529,227.061 80.5863,223.728 81.5,220.5C 83.0672,219.319 83.9005,217.653 84,215.5C 84.4974,212.854 84.6641,210.187 84.5,207.5C 85.6043,206.003 86.6043,204.336 87.5,202.5C 89.5887,197.066 90.922,191.399 91.5,185.5C 94.4688,183.38 95.8021,180.38 95.5,176.5C 96.5,176.5 97.5,176.5 98.5,176.5C 98.8333,173.833 99.1667,171.167 99.5,168.5C 100.906,168.027 101.573,167.027 101.5,165.5C 101.75,163.326 102.75,161.659 104.5,160.5C 108.163,159.155 109.83,156.488 109.5,152.5C 112.471,150.557 114.471,147.891 115.5,144.5C 124.833,134.5 134.5,124.833 144.5,115.5C 149.439,112.843 154.439,110.177 159.5,107.5C 160.127,106.583 160.461,105.583 160.5,104.5C 161.873,104.657 163.207,104.49 164.5,104C 165.989,102.532 167.323,101.032 168.5,99.5C 172.532,98.4332 176.532,97.4332 180.5,96.5C 180.5,95.5 180.5,94.5 180.5,93.5C 184.775,94.2503 188.109,92.917 190.5,89.5C 195.344,89.5644 199.678,88.231 203.5,85.5C 204.568,84.5655 205.901,84.2322 207.5,84.5C 215.843,83.4992 224.176,82.3325 232.5,81C 242.161,80.5002 251.828,80.3335 261.5,80.5 Z"/></g>
<g><path style="opacity:0.992" fill="#f4d48c" d="M 261.5,80.5 C 261.5,80.1667 261.5,79.8333 261.5,79.5C 267.373,79.596 273.04,80.2627 278.5,81.5C 272.773,81.7402 267.106,81.4069 261.5,80.5 Z"/></g>
<g><path style="opacity:1" fill="#f3d38b" d="M 261.5,79.5 C 261.5,79.8333 261.5,80.1667 261.5,80.5C 251.828,80.3335 242.161,80.5002 232.5,81C 224.176,82.3325 215.843,83.4992 207.5,84.5C 225.199,79.2558 243.199,77.5891 261.5,79.5 Z"/></g>
<g><path style="opacity:0.427" fill="#f8df9c" d="M 153.5,83.5 C 152.341,85.2503 150.674,86.2503 148.5,86.5C 149.659,84.7497 151.326,83.7497 153.5,83.5 Z"/></g>
<g><path style="opacity:0.973" fill="#f1d082" d="M 279.5,81.5 C 285.095,82.2321 290.429,83.5654 295.5,85.5C 291.466,85.3279 287.466,84.8279 283.5,84C 281.68,83.7996 280.347,82.9663 279.5,81.5 Z"/></g>
<g><path style="opacity:1" fill="#eece74" d="M 148.5,86.5 C 145.992,88.9236 142.992,90.5903 139.5,91.5C 139.414,90.5041 139.748,89.6708 140.5,89C 143.102,87.8604 145.769,87.0271 148.5,86.5 Z"/></g>
<g><path style="opacity:0.996" fill="#ecd381" d="M 203.5,85.5 C 199.678,88.231 195.344,89.5644 190.5,89.5C 194.491,87.3941 198.824,86.0608 203.5,85.5 Z"/></g>
<g><path style="opacity:0.498" fill="#f8e0a9" d="M 352.5,87.5 C 354.027,87.427 355.027,88.0937 355.5,89.5C 353.973,89.573 352.973,88.9063 352.5,87.5 Z"/></g>
<g><path style="opacity:0.678" fill="#f3d998" d="M 295.5,85.5 C 301.793,86.8996 307.793,88.8996 313.5,91.5C 312.167,91.5 310.833,91.5 309.5,91.5C 304.713,89.8019 300.046,87.8019 295.5,85.5 Z"/></g>
<g><path style="opacity:1" fill="#f1c056" d="M 345.5,83.5 C 346.873,83.3433 348.207,83.51 349.5,84C 353.074,85.6884 356.407,87.6884 359.5,90C 361.235,90.6514 362.902,90.4847 364.5,89.5C 365.696,89.8457 365.696,90.3457 364.5,91C 365.448,91.4828 366.448,91.6495 367.5,91.5C 367.433,92.9587 367.766,94.2921 368.5,95.5C 367.833,95.5 367.167,95.5 366.5,95.5C 362.345,94.2583 358.678,92.2583 355.5,89.5C 355.027,88.0937 354.027,87.427 352.5,87.5C 349.669,86.9213 347.336,85.588 345.5,83.5 Z"/></g>
<g><path style="opacity:1" fill="#f3d480" d="M 139.5,91.5 C 136.506,93.9998 133.173,95.9998 129.5,97.5C 130.23,96.2876 131.23,95.2876 132.5,94.5C 132.291,93.914 131.957,93.414 131.5,93C 134.207,92.6049 136.873,92.1049 139.5,91.5 Z"/></g>
<g><path style="opacity:1" fill="#f0ca76" d="M 190.5,89.5 C 188.109,92.917 184.775,94.2503 180.5,93.5C 183.54,91.6541 186.873,90.3208 190.5,89.5 Z"/></g>
<g><path style="opacity:1" fill="#efca6f" d="M 309.5,91.5 C 310.833,91.5 312.167,91.5 313.5,91.5C 315.5,92.1667 317.5,92.8333 319.5,93.5C 319.5,94.1667 319.5,94.8333 319.5,95.5C 316.093,94.1373 312.76,92.8039 309.5,91.5 Z"/></g>
<g><path style="opacity:0.553" fill="#f6db9d" d="M 319.5,93.5 C 323.362,95.2619 327.028,97.2619 330.5,99.5C 326.736,98.4519 323.069,97.1185 319.5,95.5C 319.5,94.8333 319.5,94.1667 319.5,93.5 Z"/></g>
<g><path style="opacity:0.992" fill="#f1cd76" d="M 180.5,93.5 C 180.5,94.5 180.5,95.5 180.5,96.5C 176.532,97.4332 172.532,98.4332 168.5,99.5C 172.182,96.9922 176.182,94.9922 180.5,93.5 Z"/></g>
<g><path style="opacity:1" fill="#f2ca73" d="M 168.5,99.5 C 167.323,101.032 165.989,102.532 164.5,104C 163.207,104.49 161.873,104.657 160.5,104.5C 162.629,102.05 165.296,100.383 168.5,99.5 Z"/></g>
<g><path style="opacity:1" fill="#f0c868" d="M 331.5,99.5 C 336.709,102.598 341.709,105.932 346.5,109.5C 343.017,107.97 339.35,106.97 335.5,106.5C 335.833,103.5 334.5,102.167 331.5,102.5C 331.5,101.5 331.5,100.5 331.5,99.5 Z"/></g>
<g><path style="opacity:0.804" fill="#f9dba3" d="M 158.5,105.5 C 158.027,106.906 157.027,107.573 155.5,107.5C 155.973,106.094 156.973,105.427 158.5,105.5 Z"/></g>
<g><path style="opacity:1" fill="#f1c869" d="M 160.5,104.5 C 160.461,105.583 160.127,106.583 159.5,107.5C 154.439,110.177 149.439,112.843 144.5,115.5C 147.601,112.067 151.268,109.4 155.5,107.5C 157.027,107.573 158.027,106.906 158.5,105.5C 158.842,104.662 159.508,104.328 160.5,104.5 Z"/></g>
<g><path style="opacity:1" fill="#f1ca73" d="M 350.5,112.5 C 355.409,115.074 359.742,118.408 363.5,122.5C 362.391,122.443 361.391,122.11 360.5,121.5C 357.825,120.155 355.492,118.322 353.5,116C 352.552,115.517 351.552,115.351 350.5,115.5C 350.5,114.5 350.5,113.5 350.5,112.5 Z"/></g>
<g><path style="opacity:0.945" fill="#ecd299" d="M 97.5,129.5 C 97.5,128.167 97.5,126.833 97.5,125.5C 76.8333,125.5 56.1667,125.5 35.5,125.5C 35.5,126.833 35.5,128.167 35.5,129.5C 31.0173,125.706 31.6839,123.706 37.5,123.5C 56.6018,123.58 75.7685,123.58 95,123.5C 96.8254,124.103 98.6587,124.77 100.5,125.5C 99.4793,126.901 98.4793,128.235 97.5,129.5 Z"/></g>
<g><path style="opacity:0.941" fill="#eccd8a" d="M 459.5,124.5 C 461.167,124.5 462.833,124.5 464.5,124.5C 464.5,125.5 464.5,126.5 464.5,127.5C 462.003,133.165 459.003,138.498 455.5,143.5C 455.998,140.513 456.498,137.513 457,134.5C 457.893,135.711 458.726,135.711 459.5,134.5C 460.398,131.427 461.398,128.427 462.5,125.5C 442.5,125.5 422.5,125.5 402.5,125.5C 402.674,127.861 403.007,130.194 403.5,132.5C 401.61,130.41 399.943,128.077 398.5,125.5C 398.808,124.692 399.308,124.025 400,123.5C 419.768,123.263 439.601,123.596 459.5,124.5 Z"/></g>
<g><path style="opacity:0.995" fill="#edbd46" d="M 97.5,129.5 C 96.8333,129.833 96.1667,130.167 95.5,130.5C 95.33,129.178 95.6634,128.011 96.5,127C 76.4917,126.167 56.4917,126.334 36.5,127.5C 38.0049,128.842 38.6715,130.508 38.5,132.5C 38.1667,132.5 37.8333,132.5 37.5,132.5C 36.5987,131.71 35.9321,130.71 35.5,129.5C 35.5,128.167 35.5,126.833 35.5,125.5C 56.1667,125.5 76.8333,125.5 97.5,125.5C 97.5,126.833 97.5,128.167 97.5,129.5 Z"/></g>
<g><path style="opacity:0.643" fill="#f5e9c9" d="M 459.5,124.5 C 461.847,123.105 464.181,123.272 466.5,125C 465.934,125.995 465.267,126.828 464.5,127.5C 464.5,126.5 464.5,125.5 464.5,124.5C 462.833,124.5 461.167,124.5 459.5,124.5 Z"/></g>
<g><path style="opacity:1" fill="#f3bc34" d="M 95.5,130.5 C 94.791,131.404 93.791,131.737 92.5,131.5C 92.5987,134.237 92.2653,136.904 91.5,139.5C 89.8958,140.287 89.2291,141.62 89.5,143.5C 89.5,143.833 89.5,144.167 89.5,144.5C 85.678,145.18 84.0114,147.513 84.5,151.5C 84.6716,152.492 84.3382,153.158 83.5,153.5C 82.2921,154.234 80.9587,154.567 79.5,154.5C 79.5,156.5 79.5,158.5 79.5,160.5C 77.8561,160.286 76.3561,160.62 75,161.5C 74.4978,164.513 73.9978,167.513 73.5,170.5C 72.5,170.5 71.5,170.5 70.5,170.5C 70.6602,172.199 70.4935,173.866 70,175.5C 68.4933,176.505 67.3267,177.838 66.5,179.5C 65.5832,178.873 64.5832,178.539 63.5,178.5C 63.5,178.167 63.5,177.833 63.5,177.5C 63.1667,175.5 62.8333,173.5 62.5,171.5C 61.5,171.5 60.5,171.5 59.5,171.5C 59.5,171.167 59.5,170.833 59.5,170.5C 59.6458,167.229 58.3125,164.895 55.5,163.5C 55.1298,160.733 53.7964,158.733 51.5,157.5C 51.5,157.167 51.5,156.833 51.5,156.5C 51.0074,154.194 50.6741,151.861 50.5,149.5C 49.5,149.5 48.5,149.5 47.5,149.5C 46.0937,149.027 45.427,148.027 45.5,146.5C 44.4764,143.445 43.1431,140.445 41.5,137.5C 41.0431,136.702 40.3764,136.369 39.5,136.5C 39.5674,135.041 39.2341,133.708 38.5,132.5C 38.6715,130.508 38.0049,128.842 36.5,127.5C 56.4917,126.334 76.4917,126.167 96.5,127C 95.6634,128.011 95.33,129.178 95.5,130.5 Z"/></g>
<g><path style="opacity:1" fill="#eec353" d="M 360.5,121.5 C 361.391,122.11 362.391,122.443 363.5,122.5C 365.833,124.167 367.833,126.167 369.5,128.5C 369.5,129.167 369.5,129.833 369.5,130.5C 367.544,128.852 365.211,128.185 362.5,128.5C 362.532,125.924 361.865,123.591 360.5,121.5 Z"/></g>
<g><path style="opacity:1" fill="#f3bc33" d="M 455.5,143.5 C 454.178,143.33 453.011,143.663 452,144.5C 450.798,146.677 450.298,149.011 450.5,151.5C 445.415,155.984 442.082,161.65 440.5,168.5C 440.672,169.492 440.338,170.158 439.5,170.5C 435.664,171.243 433.997,173.576 434.5,177.5C 432.712,177.785 431.045,177.452 429.5,176.5C 426.628,171.369 424.295,166.035 422.5,160.5C 421.5,160.5 420.5,160.5 419.5,160.5C 416.34,153.511 413.173,146.511 410,139.5C 407.826,137.134 405.66,134.801 403.5,132.5C 403.007,130.194 402.674,127.861 402.5,125.5C 422.5,125.5 442.5,125.5 462.5,125.5C 461.398,128.427 460.398,131.427 459.5,134.5C 458.726,135.711 457.893,135.711 457,134.5C 456.498,137.513 455.998,140.513 455.5,143.5 Z"/></g>
<g><path style="opacity:0.89" fill="#f4d78f" d="M 144.5,115.5 C 134.5,124.833 124.833,134.5 115.5,144.5C 123.5,133.167 133.167,123.5 144.5,115.5 Z"/></g>
<g><path style="opacity:0.894" fill="#f2dc9a" d="M 369.5,128.5 C 373.234,131.231 376.234,134.564 378.5,138.5C 375.5,135.833 372.5,133.167 369.5,130.5C 369.5,129.833 369.5,129.167 369.5,128.5 Z"/></g>
<g><path style="opacity:1" fill="#f1cf75" d="M 97.5,129.5 C 95.9998,133.173 93.9998,136.506 91.5,139.5C 92.2653,136.904 92.5987,134.237 92.5,131.5C 93.791,131.737 94.791,131.404 95.5,130.5C 96.1667,130.167 96.8333,129.833 97.5,129.5 Z"/></g>
<g><path style="opacity:0.498" fill="#f6e2ac" d="M 37.5,132.5 C 37.8333,132.5 38.1667,132.5 38.5,132.5C 39.2341,133.708 39.5674,135.041 39.5,136.5C 38.3263,135.486 37.6596,134.153 37.5,132.5 Z"/></g>
<g><path style="opacity:1" fill="#f4d597" d="M 39.5,136.5 C 40.3764,136.369 41.0431,136.702 41.5,137.5C 43.1431,140.445 44.4764,143.445 45.5,146.5C 43.0116,143.534 41.0116,140.201 39.5,136.5 Z"/></g>
<g><path style="opacity:0.976" fill="#f2db97" d="M 378.5,138.5 C 380.914,139.911 382.581,141.911 383.5,144.5C 381.086,143.089 379.419,141.089 378.5,138.5 Z"/></g>
<g><path style="opacity:1" fill="#efcd7a" d="M 403.5,132.5 C 405.66,134.801 407.826,137.134 410,139.5C 413.173,146.511 416.34,153.511 419.5,160.5C 413.664,151.5 408.331,142.167 403.5,132.5 Z"/></g>
<g><path style="opacity:0.624" fill="#f4e09d" d="M 91.5,139.5 C 91.3404,141.153 90.6737,142.486 89.5,143.5C 89.2291,141.62 89.8958,140.287 91.5,139.5 Z"/></g>
<g><path style="opacity:0.914" fill="#f3d791" d="M 115.5,144.5 C 114.471,147.891 112.471,150.557 109.5,152.5C 111.016,149.467 113.016,146.8 115.5,144.5 Z"/></g>
<g><path style="opacity:1" fill="#f0cc71" d="M 89.5,144.5 C 88.0664,147.047 86.3998,149.381 84.5,151.5C 84.0114,147.513 85.678,145.18 89.5,144.5 Z"/></g>
<g><path style="opacity:1" fill="#f0cb74" d="M 383.5,144.5 C 385.984,146.8 387.984,149.467 389.5,152.5C 385.562,151.235 383.562,148.568 383.5,144.5 Z"/></g>
<g><path style="opacity:1" fill="#f2c768" d="M 455.5,143.5 C 454.32,146.54 452.653,149.206 450.5,151.5C 450.298,149.011 450.798,146.677 452,144.5C 453.011,143.663 454.178,143.33 455.5,143.5 Z"/></g>
<g><path style="opacity:1" fill="#f0cd73" d="M 47.5,149.5 C 48.5,149.5 49.5,149.5 50.5,149.5C 50.6741,151.861 51.0074,154.194 51.5,156.5C 49.412,154.664 48.0787,152.331 47.5,149.5 Z"/></g>
<g><path style="opacity:1" fill="#f1ce74" d="M 83.5,153.5 C 82.9213,156.331 81.588,158.664 79.5,160.5C 79.5,158.5 79.5,156.5 79.5,154.5C 80.9587,154.567 82.2921,154.234 83.5,153.5 Z"/></g>
<g><path style="opacity:0.98" fill="#f5db98" d="M 51.5,157.5 C 53.7964,158.733 55.1298,160.733 55.5,163.5C 53.684,161.882 52.3507,159.882 51.5,157.5 Z"/></g>
<g><path style="opacity:1" fill="#f1ca74" d="M 109.5,152.5 C 109.83,156.488 108.163,159.155 104.5,160.5C 105.383,157.296 107.05,154.629 109.5,152.5 Z"/></g>
<g><path style="opacity:1" fill="#efcc71" d="M 450.5,151.5 C 447.92,157.668 444.586,163.335 440.5,168.5C 442.082,161.65 445.415,155.984 450.5,151.5 Z"/></g>
<g><path style="opacity:1" fill="#f2c65f" d="M 79.5,160.5 C 77.9998,164.173 75.9998,167.506 73.5,170.5C 73.9978,167.513 74.4978,164.513 75,161.5C 76.3561,160.62 77.8561,160.286 79.5,160.5 Z"/></g>
<g><path style="opacity:1" fill="#edca70" d="M 389.5,152.5 C 394.503,158.495 398.503,165.162 401.5,172.5C 399.926,172.063 398.759,171.063 398,169.5C 395.584,164.999 392.917,160.666 390,156.5C 389.51,155.207 389.343,153.873 389.5,152.5 Z"/></g>
<g><path style="opacity:1" fill="#f1d280" d="M 55.5,163.5 C 58.3125,164.895 59.6458,167.229 59.5,170.5C 57.412,168.664 56.0787,166.331 55.5,163.5 Z"/></g>
<g><path style="opacity:0.431" fill="#f5e2aa" d="M 101.5,165.5 C 101.573,167.027 100.906,168.027 99.5,168.5C 99.427,166.973 100.094,165.973 101.5,165.5 Z"/></g>
<g><path style="opacity:1" fill="#f0cc76" d="M 73.5,170.5 C 71.5944,174.922 69.4277,179.256 67,183.5C 65.8236,181.804 64.657,180.138 63.5,178.5C 64.5832,178.539 65.5832,178.873 66.5,179.5C 67.3267,177.838 68.4933,176.505 70,175.5C 70.4935,173.866 70.6602,172.199 70.5,170.5C 71.5,170.5 72.5,170.5 73.5,170.5 Z"/></g>
<g><path style="opacity:1" fill="#efd180" d="M 59.5,171.5 C 60.5,171.5 61.5,171.5 62.5,171.5C 62.8333,173.5 63.1667,175.5 63.5,177.5C 61.684,175.882 60.3507,173.882 59.5,171.5 Z"/></g>
<g><path style="opacity:1" fill="#f1ca6a" d="M 99.5,168.5 C 99.1667,171.167 98.8333,173.833 98.5,176.5C 97.5,176.5 96.5,176.5 95.5,176.5C 96.3257,173.515 97.659,170.849 99.5,168.5 Z"/></g>
<g><path style="opacity:1" fill="#efcb6d" d="M 419.5,160.5 C 420.5,160.5 421.5,160.5 422.5,160.5C 424.295,166.035 426.628,171.369 429.5,176.5C 431.045,177.452 432.712,177.785 434.5,177.5C 433.997,173.576 435.664,171.243 439.5,170.5C 437.529,175.105 435.029,179.438 432,183.5C 427.576,175.926 423.409,168.259 419.5,160.5 Z"/></g>
<g><path style="opacity:1" fill="#f0c76e" d="M 401.5,172.5 C 403.341,174.849 404.674,177.515 405.5,180.5C 404.5,180.5 403.5,180.5 402.5,180.5C 402.167,177.833 401.833,175.167 401.5,172.5 Z"/></g>
<g><path style="opacity:1" fill="#efc973" d="M 95.5,176.5 C 95.8021,180.38 94.4688,183.38 91.5,185.5C 92.0749,182.088 93.4082,179.088 95.5,176.5 Z"/></g>
<g><path style="opacity:0.992" fill="#edcb75" d="M 405.5,181.5 C 407.065,183.509 408.065,185.843 408.5,188.5C 406.166,186.824 405.166,184.491 405.5,181.5 Z"/></g>
<g><path style="opacity:0.98" fill="#f0d381" d="M 408.5,188.5 C 410.31,191.145 411.31,194.145 411.5,197.5C 409.528,194.916 408.528,191.916 408.5,188.5 Z"/></g>
<g><path style="opacity:1" fill="#ecc969" d="M 91.5,185.5 C 90.922,191.399 89.5887,197.066 87.5,202.5C 86.6043,204.336 85.6043,206.003 84.5,207.5C 85.7351,199.726 88.0684,192.393 91.5,185.5 Z"/></g>
<g><path style="opacity:1" fill="#ecc25c" d="M 411.5,197.5 C 414.237,203.444 415.904,209.777 416.5,216.5C 415.065,215.21 414.065,213.544 413.5,211.5C 412.57,206.863 411.903,202.196 411.5,197.5 Z"/></g>
<g><path style="opacity:1" fill="#f0cc79" d="M 84.5,207.5 C 84.6641,210.187 84.4974,212.854 84,215.5C 83.9005,217.653 83.0672,219.319 81.5,220.5C 81.8816,215.908 82.8816,211.575 84.5,207.5 Z"/></g>
<g><path style="opacity:0.808" fill="#f3e2ae" d="M 47.5,221.5 C 47.0269,222.906 46.0269,223.573 44.5,223.5C 44.9731,222.094 45.9731,221.427 47.5,221.5 Z"/></g>
<g><path style="opacity:1" fill="#f0c763" d="M 51.5,219.5 C 49.6833,221.012 48.6833,223.012 48.5,225.5C 42.9867,226.623 37.6534,228.29 32.5,230.5C 35.9758,227.377 39.9758,225.043 44.5,223.5C 46.0269,223.573 47.0269,222.906 47.5,221.5C 48.5137,220.326 49.847,219.66 51.5,219.5 Z"/></g>
<g><path style="opacity:1" fill="#f3bc33" d="M 52.5,280.5 C 51.656,278.241 49.9893,277.241 47.5,277.5C 47.0269,276.094 46.0269,275.427 44.5,275.5C 41.3504,271.896 37.6838,268.73 33.5,266C 31.1902,265.503 28.8568,265.337 26.5,265.5C 25.8333,265.5 25.5,265.167 25.5,264.5C 23.6142,261.052 20.6142,259.386 16.5,259.5C 16.4257,257.589 15.4257,256.422 13.5,256C 15.2705,255.465 15.6039,254.631 14.5,253.5C 12.2534,254.374 9.92006,254.708 7.5,254.5C 7.02694,253.094 6.02694,252.427 4.5,252.5C 3.85917,251.518 3.19251,250.518 2.5,249.5C 3.61191,248.735 4.27858,247.735 4.5,246.5C 6.84769,246.408 8.51435,245.408 9.5,243.5C 12.3263,243.002 14.6597,241.669 16.5,239.5C 18.9893,239.759 20.656,238.759 21.5,236.5C 21.8417,235.662 22.5084,235.328 23.5,235.5C 27.6142,235.614 30.6142,233.948 32.5,230.5C 37.6534,228.29 42.9867,226.623 48.5,225.5C 48.6833,223.012 49.6833,221.012 51.5,219.5C 53.1439,219.714 54.6439,219.38 56,218.5C 56.5,239.164 56.6666,259.831 56.5,280.5C 55.1667,280.5 53.8333,280.5 52.5,280.5 Z"/></g>
<g><path style="opacity:0.986" fill="#eabd58" d="M 54.5,217.5 C 55.5,217.5 56.5,217.5 57.5,217.5C 57.5,238.833 57.5,260.167 57.5,281.5C 56.5,281.5 55.5,281.5 54.5,281.5C 53.5084,281.672 52.8417,281.338 52.5,280.5C 53.8333,280.5 55.1667,280.5 56.5,280.5C 56.6666,259.831 56.5,239.164 56,218.5C 54.6439,219.38 53.1439,219.714 51.5,219.5C 51.9731,218.094 52.9731,217.427 54.5,217.5 Z"/></g>
<g><path style="opacity:0.254" fill="#feeebf" d="M 444.5,217.5 C 443.5,217.5 442.5,217.5 441.5,217.5C 441.169,239.34 441.503,261.006 442.5,282.5C 442.44,283.043 442.107,283.376 441.5,283.5C 440.167,260.833 440.167,238.167 441.5,215.5C 442.739,215.942 443.739,216.609 444.5,217.5 Z"/></g>
<g><path style="opacity:0.999" fill="#eac25f" d="M 444.5,217.5 C 449.5,219.664 454.167,222.331 458.5,225.5C 452.743,224.37 447.576,222.036 443,218.5C 442.5,239.164 442.333,259.831 442.5,280.5C 445.689,278.82 449.022,277.486 452.5,276.5C 452.5,276.833 452.5,277.167 452.5,277.5C 449.15,279.196 445.817,280.863 442.5,282.5C 441.503,261.006 441.169,239.34 441.5,217.5C 442.5,217.5 443.5,217.5 444.5,217.5 Z"/></g>
<g><path style="opacity:0.984" fill="#f2d48c" d="M 459.5,225.5 C 461.537,226.846 463.537,228.18 465.5,229.5C 463.5,229.167 461.5,228.833 459.5,228.5C 459.5,227.5 459.5,226.5 459.5,225.5 Z"/></g>
<g><path style="opacity:0.945" fill="#eed389" d="M 417.5,222.5 C 419.012,227.929 419.679,233.596 419.5,239.5C 418.263,234.04 417.596,228.373 417.5,222.5 Z"/></g>
<g><path style="opacity:1" fill="#eec86e" d="M 32.5,230.5 C 30.6142,233.948 27.6142,235.614 23.5,235.5C 26.0078,233.076 29.0078,231.41 32.5,230.5 Z"/></g>
<g><path style="opacity:1" fill="#f1cd79" d="M 465.5,229.5 C 475.031,234.092 484.031,239.426 492.5,245.5C 485.616,242.225 478.616,239.225 471.5,236.5C 471.719,235.325 471.386,234.325 470.5,233.5C 468.142,232.846 466.475,231.513 465.5,229.5 Z"/></g>
<g><path style="opacity:1" fill="#f3bc33" d="M 458.5,225.5 C 458.833,225.5 459.167,225.5 459.5,225.5C 459.5,226.5 459.5,227.5 459.5,228.5C 461.5,228.833 463.5,229.167 465.5,229.5C 466.475,231.513 468.142,232.846 470.5,233.5C 471.386,234.325 471.719,235.325 471.5,236.5C 478.616,239.225 485.616,242.225 492.5,245.5C 493.271,247.114 494.271,248.614 495.5,250C 494.456,251.174 493.456,252.341 492.5,253.5C 489.327,254.17 486.327,255.336 483.5,257C 482.748,257.671 482.414,258.504 482.5,259.5C 478.374,259.391 475.374,261.058 473.5,264.5C 471.326,264.75 469.659,265.75 468.5,267.5C 466.152,267.592 464.486,268.592 463.5,270.5C 460.436,270.928 457.436,271.594 454.5,272.5C 454.5,273.5 454.5,274.5 454.5,275.5C 453.508,275.328 452.842,275.662 452.5,276.5C 449.022,277.486 445.689,278.82 442.5,280.5C 442.333,259.831 442.5,239.164 443,218.5C 447.576,222.036 452.743,224.37 458.5,225.5 Z"/></g>
<g><path style="opacity:1" fill="#f1cc7f" d="M 21.5,236.5 C 20.656,238.759 18.9893,239.759 16.5,239.5C 17.8993,238.11 19.5659,237.11 21.5,236.5 Z"/></g>
<g><path style="opacity:0.258" fill="#fdebbf" d="M 54.5,281.5 C 55.5,281.5 56.5,281.5 57.5,281.5C 57.5,260.167 57.5,238.833 57.5,217.5C 56.5,217.5 55.5,217.5 54.5,217.5C 55.2613,216.609 56.2613,215.942 57.5,215.5C 58.8333,238.167 58.8333,260.833 57.5,283.5C 56.2613,283.058 55.2613,282.391 54.5,281.5 Z"/></g>
<g><path style="opacity:0.616" fill="#f7dda2" d="M 16.5,239.5 C 14.6597,241.669 12.3263,243.002 9.5,243.5C 11.3356,241.412 13.6689,240.079 16.5,239.5 Z"/></g>
<g><path style="opacity:0.745" fill="#f8df97" d="M 9.5,243.5 C 8.51435,245.408 6.84769,246.408 4.5,246.5C 5.65938,244.75 7.32604,243.75 9.5,243.5 Z"/></g>
<g><path style="opacity:0.875" fill="#ecd38e" d="M 4.5,246.5 C 4.27858,247.735 3.61191,248.735 2.5,249.5C 3.19251,250.518 3.85917,251.518 4.5,252.5C 2.83333,251.833 1.16667,251.167 -0.5,250.5C -0.5,249.833 -0.5,249.167 -0.5,248.5C 1.04953,247.559 2.7162,246.893 4.5,246.5 Z"/></g>
<g><path style="opacity:1" fill="#efcf7b" d="M 492.5,245.5 C 494.954,246.227 497.287,247.227 499.5,248.5C 499.5,249.167 499.5,249.833 499.5,250.5C 497.313,251.758 494.98,252.758 492.5,253.5C 493.456,252.341 494.456,251.174 495.5,250C 494.271,248.614 493.271,247.114 492.5,245.5 Z"/></g>
<g><path style="opacity:0.38" fill="#fce5b5" d="M 4.5,252.5 C 6.02694,252.427 7.02694,253.094 7.5,254.5C 5.97306,254.573 4.97306,253.906 4.5,252.5 Z"/></g>
<g><path style="opacity:1" fill="#f2c460" d="M 16.5,259.5 C 13.2402,258.226 10.2402,256.56 7.5,254.5C 9.92006,254.708 12.2534,254.374 14.5,253.5C 15.6039,254.631 15.2705,255.465 13.5,256C 15.4257,256.422 16.4257,257.589 16.5,259.5 Z"/></g>
<g><path style="opacity:0.925" fill="#f1d283" d="M 492.5,253.5 C 489.506,256 486.173,258 482.5,259.5C 482.414,258.504 482.748,257.671 483.5,257C 486.327,255.336 489.327,254.17 492.5,253.5 Z"/></g>
<g><path style="opacity:1" fill="#f0d07f" d="M 482.5,259.5 C 479.992,261.924 476.992,263.59 473.5,264.5C 475.374,261.058 478.374,259.391 482.5,259.5 Z"/></g>
<g><path style="opacity:1" fill="#f2c970" d="M 16.5,259.5 C 20.6142,259.386 23.6142,261.052 25.5,264.5C 22.0078,263.59 19.0078,261.924 16.5,259.5 Z"/></g>
<g><path style="opacity:0.498" fill="#f9e0a6" d="M 473.5,264.5 C 472.341,266.25 470.674,267.25 468.5,267.5C 469.659,265.75 471.326,264.75 473.5,264.5 Z"/></g>
<g><path style="opacity:1" fill="#ecc459" d="M 26.5,265.5 C 28.8568,265.337 31.1902,265.503 33.5,266C 37.6838,268.73 41.3504,271.896 44.5,275.5C 42.847,275.34 41.5137,274.674 40.5,273.5C 40.0269,272.094 39.0269,271.427 37.5,271.5C 35.847,271.34 34.5137,270.674 33.5,269.5C 33.0269,268.094 32.0269,267.427 30.5,267.5C 28.847,267.34 27.5137,266.674 26.5,265.5 Z"/></g>
<g><path style="opacity:0.996" fill="#f0ce7d" d="M 80.5,230.5 C 80.3335,241.505 80.5002,252.505 81,263.5C 82.0298,274.281 83.5298,284.947 85.5,295.5C 81.1338,280.612 78.8005,265.279 78.5,249.5C 78.9944,242.998 79.661,236.665 80.5,230.5 Z"/></g>
<g><path style="opacity:0.38" fill="#f9e9ae" d="M 30.5,267.5 C 32.0269,267.427 33.0269,268.094 33.5,269.5C 31.9731,269.573 30.9731,268.906 30.5,267.5 Z"/></g>
<g><path style="opacity:0.855" fill="#f5d898" d="M 468.5,267.5 C 467.341,269.25 465.674,270.25 463.5,270.5C 464.486,268.592 466.152,267.592 468.5,267.5 Z"/></g>
<g><path style="opacity:0.812" fill="#f8e1a7" d="M 37.5,271.5 C 39.0269,271.427 40.0269,272.094 40.5,273.5C 38.9731,273.573 37.9731,272.906 37.5,271.5 Z"/></g>
<g><path style="opacity:1" fill="#f2ce74" d="M 463.5,270.5 C 461.206,272.653 458.54,274.32 455.5,275.5C 455.167,275.5 454.833,275.5 454.5,275.5C 454.5,274.5 454.5,273.5 454.5,272.5C 457.436,271.594 460.436,270.928 463.5,270.5 Z"/></g>
<g><path style="opacity:0.255" fill="#fce7cb" d="M 454.5,275.5 C 454.833,275.5 455.167,275.5 455.5,275.5C 454.71,276.401 453.71,277.068 452.5,277.5C 452.5,277.167 452.5,276.833 452.5,276.5C 452.842,275.662 453.508,275.328 454.5,275.5 Z"/></g>
<g><path style="opacity:0.439" fill="#fbe5b1" d="M 44.5,275.5 C 46.0269,275.427 47.0269,276.094 47.5,277.5C 45.9731,277.573 44.9731,276.906 44.5,275.5 Z"/></g>
<g><path style="opacity:1" fill="#f2d18b" d="M 47.5,277.5 C 49.9893,277.241 51.656,278.241 52.5,280.5C 50.5659,279.89 48.8993,278.89 47.5,277.5 Z"/></g>
<g><path style="opacity:0.999" fill="#f0ca76" d="M 419.5,260.5 C 419.101,272.565 417.101,284.232 413.5,295.5C 415.1,283.658 417.1,271.991 419.5,260.5 Z"/></g>
<g><path style="opacity:1" fill="#efcf7c" d="M 85.5,296.5 C 86.7899,297.058 87.6232,298.058 88,299.5C 90.2,306.316 92.7,312.983 95.5,319.5C 94.8333,319.5 94.1667,319.5 93.5,319.5C 90.0678,312.107 87.4012,304.441 85.5,296.5 Z"/></g>
<g><path style="opacity:1" fill="#f0c04f" d="M 413.5,295.5 C 412.99,298.539 412.323,301.539 411.5,304.5C 409.952,304.821 409.285,305.821 409.5,307.5C 409.5,307.833 409.5,308.167 409.5,308.5C 407.787,309.635 407.12,311.302 407.5,313.5C 407.008,315.819 406.008,317.819 404.5,319.5C 406.311,313.95 407.145,308.284 407,302.5C 408,299.833 409,299.833 410,302.5C 410.139,299.555 411.306,297.221 413.5,295.5 Z"/></g>
<g><path style="opacity:0.557" fill="#fadfa9" d="M 411.5,304.5 C 411.068,305.71 410.401,306.71 409.5,307.5C 409.285,305.821 409.952,304.821 411.5,304.5 Z"/></g>
<g><path style="opacity:0.678" fill="#f4e1a3" d="M 409.5,308.5 C 409.204,310.403 408.537,312.07 407.5,313.5C 407.12,311.302 407.787,309.635 409.5,308.5 Z"/></g>
<g><path style="opacity:1" fill="#ebcd6f" d="M 71.5,324.5 C 69.7175,323.886 68.3841,322.72 67.5,321C 66.0715,320.421 64.7382,320.588 63.5,321.5C 64.3909,319.391 65.5576,317.391 67,315.5C 68.5266,318.553 70.0266,321.553 71.5,324.5 Z"/></g>
<g><path style="opacity:0.871" fill="#f2ddb1" d="M 93.5,319.5 C 94.1667,319.5 94.8333,319.5 95.5,319.5C 95.5,320.5 95.5,321.5 95.5,322.5C 94.5987,321.71 93.9321,320.71 93.5,319.5 Z"/></g>
<g><path style="opacity:1" fill="#efcb72" d="M 438.5,326.5 C 436.068,325.007 434.068,323.007 432.5,320.5C 431.127,322.207 429.461,323.54 427.5,324.5C 428.658,321.517 430.325,318.85 432.5,316.5C 435.026,319.557 437.026,322.891 438.5,326.5 Z"/></g>
<g><path style="opacity:0.973" fill="#eed082" d="M 404.5,319.5 C 404.293,322.241 403.293,324.574 401.5,326.5C 401.166,323.509 402.166,321.176 404.5,319.5 Z"/></g>
<g><path style="opacity:1" fill="#f1d282" d="M 63.5,321.5 C 63.2639,324.621 61.9305,326.954 59.5,328.5C 60.0787,325.669 61.412,323.336 63.5,321.5 Z"/></g>
<g><path style="opacity:0.498" fill="#f7db9d" d="M 95.5,322.5 C 97.873,324.579 99.2064,327.246 99.5,330.5C 97.659,328.151 96.3257,325.485 95.5,322.5 Z"/></g>
<g><path style="opacity:1" fill="#f0d07f" d="M 71.5,324.5 C 72.8897,325.899 73.8897,327.566 74.5,329.5C 72.2407,328.656 71.2407,326.989 71.5,324.5 Z"/></g>
<g><path style="opacity:1" fill="#f3bf49" d="M 395.5,335.5 C 394.89,336.391 394.557,337.391 394.5,338.5C 392.822,343.197 390.156,347.197 386.5,350.5C 386.998,347.513 387.498,344.513 388,341.5C 388.811,342.96 389.645,343.293 390.5,342.5C 388.043,340.375 388.376,338.541 391.5,337C 390.833,336.667 390.167,336.333 389.5,336C 390.435,333.619 390.768,331.119 390.5,328.5C 391.5,328.5 392.5,328.5 393.5,328.5C 392.99,331.388 393.656,333.721 395.5,335.5 Z"/></g>
<g><path style="opacity:0.839" fill="#f2d48d" d="M 401.5,326.5 C 400.59,329.992 398.924,332.992 396.5,335.5C 396.913,331.662 398.58,328.662 401.5,326.5 Z"/></g>
<g><path style="opacity:1" fill="#edc86f" d="M 427.5,324.5 C 427.614,328.614 425.948,331.614 422.5,333.5C 423.41,330.008 425.076,327.008 427.5,324.5 Z"/></g>
<g><path style="opacity:1" fill="#edcd73" d="M 440.5,330.5 C 443.623,333.976 445.957,337.976 447.5,342.5C 443.644,339.465 441.311,335.465 440.5,330.5 Z"/></g>
<g><path style="opacity:1" fill="#f1c154" d="M 59.5,328.5 C 58.484,331.2 58.484,333.866 59.5,336.5C 58.1936,337.912 57.3603,339.579 57,341.5C 56.6924,340.692 56.1924,340.025 55.5,339.5C 54.4104,340.391 54.4104,341.391 55.5,342.5C 54.7261,343.711 53.8928,343.711 53,342.5C 52.7216,343.416 52.2216,344.082 51.5,344.5C 51.5,343.833 51.5,343.167 51.5,342.5C 53.6643,337.5 56.331,332.833 59.5,328.5 Z"/></g>
<g><path style="opacity:1" fill="#efc35c" d="M 74.5,329.5 C 79.2256,336.905 83.5589,344.572 87.5,352.5C 87.427,354.027 88.0937,355.027 89.5,355.5C 90.6737,356.514 91.3404,357.847 91.5,359.5C 89.9755,358.826 88.6422,357.826 87.5,356.5C 86.4944,353.232 84.9944,350.232 83,347.5C 82,346.167 81,346.167 80,347.5C 80.0884,343.766 78.755,340.766 76,338.5C 75.304,335.522 74.804,332.522 74.5,329.5 Z"/></g>
<g><path style="opacity:0.914" fill="#efd082" d="M 99.5,331.5 C 100.5,331.5 101.5,331.5 102.5,331.5C 103.538,334.581 104.872,337.581 106.5,340.5C 107.11,341.391 107.443,342.391 107.5,343.5C 104.474,339.795 101.808,335.795 99.5,331.5 Z"/></g>
<g><path style="opacity:0.431" fill="#fbda99" d="M 395.5,335.5 C 395.833,335.5 396.167,335.5 396.5,335.5C 396.573,337.027 395.906,338.027 394.5,338.5C 394.557,337.391 394.89,336.391 395.5,335.5 Z"/></g>
<g><path style="opacity:0.376" fill="#fbe2b1" d="M 419.5,338.5 C 419.573,340.027 418.906,341.027 417.5,341.5C 417.427,339.973 418.094,338.973 419.5,338.5 Z"/></g>
<g><path style="opacity:1" fill="#efc150" d="M 114.5,350.5 C 113.833,350.5 113.167,350.5 112.5,350.5C 110.1,348.704 108.433,346.37 107.5,343.5C 107.443,342.391 107.11,341.391 106.5,340.5C 107.735,340.721 108.735,341.388 109.5,342.5C 110.251,341.624 110.751,340.624 111,339.5C 111.651,341.235 111.485,342.902 110.5,344.5C 112.446,346.085 113.779,348.085 114.5,350.5 Z"/></g>
<g><path style="opacity:1" fill="#f0ce7c" d="M 51.5,342.5 C 51.5,343.167 51.5,343.833 51.5,344.5C 49.4824,348.163 47.1491,351.496 44.5,354.5C 46.0435,349.976 48.3768,345.976 51.5,342.5 Z"/></g>
<g><path style="opacity:0.373" fill="#fae8b1" d="M 415.5,345.5 C 415.573,347.027 414.906,348.027 413.5,348.5C 413.427,346.973 414.094,345.973 415.5,345.5 Z"/></g>
<g><path style="opacity:1" fill="#f3bc33" d="M 438.5,326.5 C 439.674,327.514 440.34,328.847 440.5,330.5C 441.311,335.465 443.644,339.465 447.5,342.5C 449.588,344.336 450.921,346.669 451.5,349.5C 451.201,351.604 451.534,353.604 452.5,355.5C 456.256,359.337 458.756,364.003 460,369.5C 460.925,370.047 461.758,370.713 462.5,371.5C 443.512,372.5 424.512,372.833 405.5,372.5C 405.343,371.127 405.51,369.793 406,368.5C 406.667,367.167 407.333,367.167 408,368.5C 408.827,367.338 409.66,366.171 410.5,365C 409.507,362.547 409.34,360.047 410,357.5C 412.062,355.64 413.395,353.306 414,350.5C 415.506,348.826 417.339,347.826 419.5,347.5C 420.007,343.14 420.673,338.807 421.5,334.5C 421.5,333.833 421.833,333.5 422.5,333.5C 425.948,331.614 427.614,328.614 427.5,324.5C 429.461,323.54 431.127,322.207 432.5,320.5C 434.068,323.007 436.068,325.007 438.5,326.5 Z"/></g>
<g><path style="opacity:1" fill="#f3bc33" d="M 71.5,324.5 C 71.2407,326.989 72.2407,328.656 74.5,329.5C 74.804,332.522 75.304,335.522 76,338.5C 78.755,340.766 80.0884,343.766 80,347.5C 81,346.167 82,346.167 83,347.5C 84.9944,350.232 86.4944,353.232 87.5,356.5C 88.6422,357.826 89.9755,358.826 91.5,359.5C 91.1866,362.247 91.52,364.914 92.5,367.5C 93.086,367.291 93.586,366.957 94,366.5C 94.8333,368.167 95.6667,369.833 96.5,371.5C 86.5,371.833 76.5,372.167 66.5,372.5C 56.1436,372.499 46.1436,371.832 36.5,370.5C 38.5668,366.313 41.0668,362.313 44,358.5C 44.49,357.207 44.6567,355.873 44.5,354.5C 47.1491,351.496 49.4824,348.163 51.5,344.5C 52.2216,344.082 52.7216,343.416 53,342.5C 53.8928,343.711 54.7261,343.711 55.5,342.5C 54.4104,341.391 54.4104,340.391 55.5,339.5C 56.1924,340.025 56.6924,340.692 57,341.5C 57.3603,339.579 58.1936,337.912 59.5,336.5C 58.484,333.866 58.484,331.2 59.5,328.5C 61.9305,326.954 63.2639,324.621 63.5,321.5C 64.7382,320.588 66.0715,320.421 67.5,321C 68.3841,322.72 69.7175,323.886 71.5,324.5 Z"/></g>
<g><path style="opacity:0.431" fill="#fae2aa" d="M 87.5,352.5 C 88.9063,352.973 89.573,353.973 89.5,355.5C 88.0937,355.027 87.427,354.027 87.5,352.5 Z"/></g>
<g><path style="opacity:0.435" fill="#fce2b2" d="M 411.5,352.5 C 411.573,354.027 410.906,355.027 409.5,355.5C 409.427,353.973 410.094,352.973 411.5,352.5 Z"/></g>
<g><path style="opacity:1" fill="#f1cc75" d="M 112.5,350.5 C 113.167,350.5 113.833,350.5 114.5,350.5C 118.216,355.221 121.549,360.221 124.5,365.5C 119.747,361.083 115.747,356.083 112.5,350.5 Z"/></g>
<g><path style="opacity:1" fill="#f3c965" d="M 386.5,350.5 C 379.644,361.03 371.311,370.363 361.5,378.5C 361.857,376.411 362.523,374.411 363.5,372.5C 365.432,371.855 366.599,370.521 367,368.5C 367.893,369.711 368.726,369.711 369.5,368.5C 368.975,367.808 368.308,367.308 367.5,367C 368.833,366.667 370.167,366.333 371.5,366C 370.707,364.915 370.04,363.748 369.5,362.5C 371.655,362.162 373.989,362.162 376.5,362.5C 376.579,361.07 376.246,359.736 375.5,358.5C 376.498,355.972 377.331,355.972 378,358.5C 378.359,355.456 379.026,355.122 380,357.5C 380.49,356.207 380.657,354.873 380.5,353.5C 382.716,352.956 384.716,351.956 386.5,350.5 Z"/></g>
<g><path style="opacity:0.494" fill="#f9e3a8" d="M 407.5,359.5 C 407.573,361.027 406.906,362.027 405.5,362.5C 405.427,360.973 406.094,359.973 407.5,359.5 Z"/></g>
<g><path style="opacity:1" fill="#eecc72" d="M 124.5,365.5 C 127.179,365.525 128.512,366.858 128.5,369.5C 126.833,368.5 125.5,367.167 124.5,365.5 Z"/></g>
<g><path style="opacity:0.941" fill="#f2d993" d="M 128.5,369.5 C 132.41,371.737 135.743,374.737 138.5,378.5C 134.564,376.234 131.231,373.234 128.5,369.5 Z"/></g>
<g><path style="opacity:1" fill="#efbd49" d="M 91.5,359.5 C 94.3346,363.164 96.668,367.164 98.5,371.5C 77.8599,373.489 56.8599,374.155 35.5,373.5C 35.2627,372.209 35.596,371.209 36.5,370.5C 46.1436,371.832 56.1436,372.499 66.5,372.5C 76.5,372.167 86.5,371.833 96.5,371.5C 95.6667,369.833 94.8333,368.167 94,366.5C 93.586,366.957 93.086,367.291 92.5,367.5C 91.52,364.914 91.1866,362.247 91.5,359.5 Z"/></g>
<g><path style="opacity:1" fill="#eebd49" d="M 421.5,334.5 C 420.673,338.807 420.007,343.14 419.5,347.5C 417.339,347.826 415.506,348.826 414,350.5C 413.395,353.306 412.062,355.64 410,357.5C 409.34,360.047 409.507,362.547 410.5,365C 409.66,366.171 408.827,367.338 408,368.5C 407.333,367.167 406.667,367.167 406,368.5C 405.51,369.793 405.343,371.127 405.5,372.5C 424.512,372.833 443.512,372.5 462.5,371.5C 461.758,370.713 460.925,370.047 460,369.5C 458.756,364.003 456.256,359.337 452.5,355.5C 451.534,353.604 451.201,351.604 451.5,349.5C 455.988,355.799 459.988,362.466 463.5,369.5C 463.5,370.833 463.5,372.167 463.5,373.5C 442.823,373.833 422.156,373.5 401.5,372.5C 402.372,370.55 403.039,368.55 403.5,366.5C 403.66,364.847 404.326,363.514 405.5,362.5C 406.906,362.027 407.573,361.027 407.5,359.5C 407.66,357.847 408.326,356.514 409.5,355.5C 410.906,355.027 411.573,354.027 411.5,352.5C 411.66,350.847 412.326,349.514 413.5,348.5C 414.906,348.027 415.573,347.027 415.5,345.5C 415.66,343.847 416.326,342.514 417.5,341.5C 418.906,341.027 419.573,340.027 419.5,338.5C 419.66,336.847 420.326,335.514 421.5,334.5 Z"/></g>
<g><path style="opacity:0.969" fill="#edd092" d="M 44.5,354.5 C 44.6567,355.873 44.49,357.207 44,358.5C 41.0668,362.313 38.5668,366.313 36.5,370.5C 35.596,371.209 35.2627,372.209 35.5,373.5C 56.8599,374.155 77.8599,373.489 98.5,371.5C 99.4778,371.811 100.145,372.478 100.5,373.5C 98.6587,374.23 96.8254,374.897 95,375.5C 75.2619,375.58 55.4285,375.414 35.5,375C 34.5,374.667 33.5,374.333 32.5,374C 36.1491,367.185 40.1491,360.685 44.5,354.5 Z"/></g>
<g><path style="opacity:0.969" fill="#edd298" d="M 403.5,366.5 C 403.039,368.55 402.372,370.55 401.5,372.5C 422.156,373.5 442.823,373.833 463.5,373.5C 463.5,372.167 463.5,370.833 463.5,369.5C 464.601,370.848 465.601,372.348 466.5,374C 464.863,374.601 463.197,375.101 461.5,375.5C 442.259,375.448 422.925,375.448 403.5,375.5C 401.775,374.985 400.108,374.318 398.5,373.5C 399.943,370.923 401.61,368.59 403.5,366.5 Z"/></g>
<g><path style="opacity:0.996" fill="#f1da95" d="M 138.5,378.5 C 141.089,379.419 143.089,381.086 144.5,383.5C 141.911,382.581 139.911,380.914 138.5,378.5 Z"/></g>
<g><path style="opacity:1" fill="#f4cd6c" d="M 359.5,379.5 C 358.415,381.587 356.749,382.92 354.5,383.5C 354.461,382.417 354.127,381.417 353.5,380.5C 355.396,379.534 357.396,379.201 359.5,379.5 Z"/></g>
<g><path style="opacity:1" fill="#f0ca72" d="M 144.5,383.5 C 148.568,383.562 151.235,385.562 152.5,389.5C 149.467,387.984 146.8,385.984 144.5,383.5 Z"/></g>
<g><path style="opacity:1" fill="#efc763" d="M 354.5,383.5 C 348.995,388.998 342.662,393.331 335.5,396.5C 334.167,396.833 332.833,397.167 331.5,397.5C 332.183,395.824 333.517,395.157 335.5,395.5C 335.5,394.5 335.5,393.5 335.5,392.5C 338.394,392.444 341.061,391.61 343.5,390C 341.579,388.759 341.246,387.259 342.5,385.5C 343.328,386.415 344.328,387.081 345.5,387.5C 347.989,385.187 350.989,383.853 354.5,383.5 Z"/></g>
<g><path style="opacity:1" fill="#eec96b" d="M 152.5,389.5 C 156.203,390.508 159.87,391.842 163.5,393.5C 166.792,395.957 169.792,398.623 172.5,401.5C 165.162,398.503 158.495,394.503 152.5,389.5 Z"/></g>
<g><path style="opacity:0.847" fill="#f7db9f" d="M 335.5,396.5 C 334.341,398.25 332.674,399.25 330.5,399.5C 330.328,398.508 330.662,397.842 331.5,397.5C 332.833,397.167 334.167,396.833 335.5,396.5 Z"/></g>
<g><path style="opacity:0.918" fill="#f2d78e" d="M 330.5,399.5 C 329.486,400.674 328.153,401.34 326.5,401.5C 327.183,399.824 328.517,399.157 330.5,399.5 Z"/></g>
<g><path style="opacity:1" fill="#f3d186" d="M 172.5,401.5 C 176.085,401.292 178.751,402.625 180.5,405.5C 177.515,404.674 174.849,403.341 172.5,401.5 Z"/></g>
<g><path style="opacity:1" fill="#efca72" d="M 127.5,400.5 C 136.501,404.998 145.168,409.998 153.5,415.5C 144.743,411.92 136.076,408.087 127.5,404C 128.167,403.667 128.833,403.333 129.5,403C 128.244,402.583 127.577,401.75 127.5,400.5 Z"/></g>
<g><path style="opacity:1" fill="#f0d281" d="M 326.5,401.5 C 322.595,404.284 318.262,406.284 313.5,407.5C 313.414,406.504 313.748,405.671 314.5,405C 318.375,403.356 322.375,402.189 326.5,401.5 Z"/></g>
<g><path style="opacity:1" fill="#f0d07f" d="M 181.5,405.5 C 185.165,405.502 188.165,406.835 190.5,409.5C 187.088,408.925 184.088,407.592 181.5,405.5 Z"/></g>
<g><path style="opacity:1" fill="#f1ce7b" d="M 367.5,402.5 C 367.092,403.643 366.425,404.643 365.5,405.5C 362.057,406.629 359.057,408.462 356.5,411C 355.207,411.49 353.873,411.657 352.5,411.5C 356.995,407.749 361.995,404.749 367.5,402.5 Z"/></g>
<g><path style="opacity:0.682" fill="#f3e0a2" d="M 313.5,407.5 C 312.07,408.537 310.403,409.204 308.5,409.5C 309.635,407.787 311.302,407.12 313.5,407.5 Z"/></g>
<g><path style="opacity:1" fill="#f4d385" d="M 308.5,409.5 C 302.502,412.255 296.169,414.255 289.5,415.5C 289.953,414.542 290.619,413.708 291.5,413C 297.024,411.19 302.691,410.023 308.5,409.5 Z"/></g>
<g><path style="opacity:1" fill="#efcb73" d="M 190.5,409.5 C 202.808,411.252 214.808,413.919 226.5,417.5C 224.833,417.5 223.167,417.5 221.5,417.5C 210.713,416.221 200.38,413.554 190.5,409.5 Z"/></g>
<g><path style="opacity:0.942" fill="#dfc06f" d="M 127.5,400.5 C 125.511,421.14 124.845,442.14 125.5,463.5C 127.216,463.371 128.883,463.038 130.5,462.5C 129,464.179 127.167,465.512 125,466.5C 124.167,443.826 124.334,421.159 125.5,398.5C 126.522,398.855 127.189,399.522 127.5,400.5 Z"/></g>
<g><path style="opacity:1" fill="#f3bc33" d="M 367.5,402.5 C 368.833,402.5 370.167,402.5 371.5,402.5C 372.662,421.662 372.829,440.996 372,460.5C 369.263,459.44 366.43,458.606 363.5,458C 364.841,456.705 366.174,456.205 367.5,456.5C 366.758,455.713 365.925,455.047 365,454.5C 362.568,455.45 360.068,455.45 357.5,454.5C 357.5,453.5 357.5,452.5 357.5,451.5C 359.929,451.415 361.929,450.415 363.5,448.5C 362.833,448.167 362.167,447.833 361.5,447.5C 357.81,449.923 353.81,450.757 349.5,450C 348.663,448.989 348.33,447.822 348.5,446.5C 345.682,445.03 342.682,444.03 339.5,443.5C 338.167,443.5 336.833,443.5 335.5,443.5C 333.847,443.34 332.514,442.674 331.5,441.5C 331.027,440.094 330.027,439.427 328.5,439.5C 327.508,439.672 326.842,439.338 326.5,438.5C 326.027,437.094 325.027,436.427 323.5,436.5C 321.326,436.25 319.659,435.25 318.5,433.5C 318.557,432.391 318.89,431.391 319.5,430.5C 325.185,429.333 329.852,426.666 333.5,422.5C 335.848,422.408 337.514,421.408 338.5,419.5C 344.171,418.339 348.838,415.672 352.5,411.5C 353.873,411.657 355.207,411.49 356.5,411C 359.057,408.462 362.057,406.629 365.5,405.5C 366.425,404.643 367.092,403.643 367.5,402.5 Z"/></g>
<g><path style="opacity:1" fill="#f3bc33" d="M 127.5,400.5 C 127.577,401.75 128.244,402.583 129.5,403C 128.833,403.333 128.167,403.667 127.5,404C 136.076,408.087 144.743,411.92 153.5,415.5C 153.833,415.5 154.167,415.5 154.5,415.5C 154.5,416.5 154.5,417.5 154.5,418.5C 155.833,418.5 157.167,418.5 158.5,418.5C 158.833,418.5 159.167,418.5 159.5,418.5C 159.539,419.583 159.873,420.583 160.5,421.5C 166.113,424.427 171.779,427.261 177.5,430C 178.752,431.828 178.752,433.661 177.5,435.5C 175.5,435.5 173.5,435.5 171.5,435.5C 171.567,436.959 171.234,438.292 170.5,439.5C 165.047,441.108 160.381,442.942 156.5,445C 156.833,445.333 157.167,445.667 157.5,446C 156.244,446.417 155.577,447.25 155.5,448.5C 153.143,448.337 150.81,448.503 148.5,449C 146.869,450.092 145.202,450.925 143.5,451.5C 143.5,452.5 143.5,453.5 143.5,454.5C 142.07,454.579 140.736,454.246 139.5,453.5C 138.614,454.325 138.281,455.325 138.5,456.5C 136.167,457.167 133.833,457.833 131.5,458.5C 131.567,459.959 131.234,461.292 130.5,462.5C 128.883,463.038 127.216,463.371 125.5,463.5C 124.845,442.14 125.511,421.14 127.5,400.5 Z"/></g>
<g><path style="opacity:1" fill="#efcd78" d="M 352.5,411.5 C 348.838,415.672 344.171,418.339 338.5,419.5C 342.833,416.331 347.5,413.664 352.5,411.5 Z"/></g>
<g><path style="opacity:0.946" fill="#e1bf6c" d="M 368.5,462.5 C 370.167,462.5 371.833,462.5 373.5,462.5C 373.833,442.156 373.5,421.822 372.5,401.5C 371.893,401.624 371.56,401.957 371.5,402.5C 370.167,402.5 368.833,402.5 367.5,402.5C 369.435,401.19 371.435,399.857 373.5,398.5C 374.666,421.159 374.833,443.826 374,466.5C 371.833,465.512 370,464.179 368.5,462.5 Z"/></g>
<g><path style="opacity:1" fill="#eccc79" d="M 154.5,415.5 C 156.23,416.026 157.564,417.026 158.5,418.5C 157.167,418.5 155.833,418.5 154.5,418.5C 154.5,417.5 154.5,416.5 154.5,415.5 Z"/></g>
<g><path style="opacity:0.988" fill="#f3dd9a" d="M 221.5,417.5 C 223.167,417.5 224.833,417.5 226.5,417.5C 229.786,418.207 233.119,418.54 236.5,418.5C 236.5,418.833 236.5,419.167 236.5,419.5C 231.269,419.556 226.269,418.889 221.5,417.5 Z"/></g>
<g><path style="opacity:0.984" fill="#f4cf89" d="M 277.5,417.5 C 273.036,418.644 268.37,419.31 263.5,419.5C 263.5,419.167 263.5,418.833 263.5,418.5C 267.97,417.514 272.637,417.181 277.5,417.5 Z"/></g>
<g><path style="opacity:1" fill="#f0d085" d="M 236.5,419.5 C 236.5,419.167 236.5,418.833 236.5,418.5C 245.5,418.5 254.5,418.5 263.5,418.5C 263.5,418.833 263.5,419.167 263.5,419.5C 254.003,420.59 245.003,420.59 236.5,419.5 Z"/></g>
<g><path style="opacity:0.847" fill="#f3d38a" d="M 338.5,419.5 C 337.514,421.408 335.848,422.408 333.5,422.5C 334.659,420.75 336.326,419.75 338.5,419.5 Z"/></g>
<g><path style="opacity:1" fill="#f2ce7b" d="M 159.5,418.5 C 167.611,422.772 175.611,427.272 183.5,432C 181.609,433.442 179.609,434.609 177.5,435.5C 178.752,433.661 178.752,431.828 177.5,430C 171.779,427.261 166.113,424.427 160.5,421.5C 159.873,420.583 159.539,419.583 159.5,418.5 Z"/></g>
<g><path style="opacity:1" fill="#f0ca75" d="M 333.5,422.5 C 329.852,426.666 325.185,429.333 319.5,430.5C 323.833,427.331 328.5,424.664 333.5,422.5 Z"/></g>
<g><path style="opacity:0.875" fill="#ebd794" d="M 319.5,430.5 C 318.89,431.391 318.557,432.391 318.5,433.5C 315.985,432.14 316.318,431.14 319.5,430.5 Z"/></g>
<g><path style="opacity:1" fill="#f0cd71" d="M 177.5,435.5 C 175.664,437.588 173.331,438.921 170.5,439.5C 171.234,438.292 171.567,436.959 171.5,435.5C 173.5,435.5 175.5,435.5 177.5,435.5 Z"/></g>
<g><path style="opacity:0.494" fill="#f9df98" d="M 323.5,436.5 C 325.027,436.427 326.027,437.094 326.5,438.5C 324.973,438.573 323.973,437.906 323.5,436.5 Z"/></g>
<g><path style="opacity:0.812" fill="#f5dfa6" d="M 328.5,439.5 C 330.027,439.427 331.027,440.094 331.5,441.5C 329.973,441.573 328.973,440.906 328.5,439.5 Z"/></g>
<g><path style="opacity:0.248" fill="#fdedc0" d="M 281.5,444.5 C 281.5,443.5 281.5,442.5 281.5,441.5C 260.167,441.5 238.833,441.5 217.5,441.5C 217.5,442.5 217.5,443.5 217.5,444.5C 216.609,443.739 215.942,442.739 215.5,441.5C 238.167,440.167 260.833,440.167 283.5,441.5C 283.058,442.739 282.391,443.739 281.5,444.5 Z"/></g>
<g><path style="opacity:1" fill="#ebc361" d="M 281.5,444.5 C 279.668,448.836 277.335,452.836 274.5,456.5C 274.337,454.143 274.503,451.81 275,449.5C 275.333,450.167 275.667,450.833 276,451.5C 277.027,448.113 278.527,445.113 280.5,442.5C 259.831,442.333 239.164,442.5 218.5,443C 219.308,443.308 219.975,443.808 220.5,444.5C 223.059,451.054 226.059,457.387 229.5,463.5C 230.325,464.386 231.325,464.719 232.5,464.5C 232.575,467.206 232.908,469.873 233.5,472.5C 227.664,463.5 222.331,454.167 217.5,444.5C 217.5,443.5 217.5,442.5 217.5,441.5C 238.833,441.5 260.167,441.5 281.5,441.5C 281.5,442.5 281.5,443.5 281.5,444.5 Z"/></g>
<g><path style="opacity:1" fill="#f3ce77" d="M 170.5,439.5 C 165.784,442.863 160.784,445.863 155.5,448.5C 155.577,447.25 156.244,446.417 157.5,446C 157.167,445.667 156.833,445.333 156.5,445C 160.381,442.942 165.047,441.108 170.5,439.5 Z"/></g>
<g><path style="opacity:1" fill="#eacf7b" d="M 335.5,443.5 C 336.833,443.5 338.167,443.5 339.5,443.5C 340.11,444.391 340.443,445.391 340.5,446.5C 338.326,446.25 336.659,445.25 335.5,443.5 Z"/></g>
<g><path style="opacity:1" fill="#f3bc33" d="M 274.5,456.5 C 273.833,456.5 273.167,456.5 272.5,456.5C 271.325,456.281 270.325,456.614 269.5,457.5C 267.816,461.909 265.983,466.243 264,470.5C 263.086,469.346 262.253,469.513 261.5,471C 262.059,471.725 262.392,472.558 262.5,473.5C 260.729,476.256 259.729,479.256 259.5,482.5C 256.916,483.048 255.916,484.715 256.5,487.5C 255.167,487.5 253.833,487.5 252.5,487.5C 252.662,489.527 252.495,491.527 252,493.5C 251.29,494.973 250.124,495.64 248.5,495.5C 246.725,490.271 243.725,485.937 239.5,482.5C 239.885,477.582 237.885,474.249 233.5,472.5C 232.908,469.873 232.575,467.206 232.5,464.5C 231.325,464.719 230.325,464.386 229.5,463.5C 226.059,457.387 223.059,451.054 220.5,444.5C 219.975,443.808 219.308,443.308 218.5,443C 239.164,442.5 259.831,442.333 280.5,442.5C 278.527,445.113 277.027,448.113 276,451.5C 275.667,450.833 275.333,450.167 275,449.5C 274.503,451.81 274.337,454.143 274.5,456.5 Z"/></g>
<g><path style="opacity:1" fill="#f2c55e" d="M 155.5,448.5 C 154.035,449.737 152.368,450.737 150.5,451.5C 147.784,451.386 145.784,452.386 144.5,454.5C 140.167,457.669 135.5,460.336 130.5,462.5C 131.234,461.292 131.567,459.959 131.5,458.5C 133.833,457.833 136.167,457.167 138.5,456.5C 138.281,455.325 138.614,454.325 139.5,453.5C 140.736,454.246 142.07,454.579 143.5,454.5C 143.5,453.5 143.5,452.5 143.5,451.5C 145.202,450.925 146.869,450.092 148.5,449C 150.81,448.503 153.143,448.337 155.5,448.5 Z"/></g>
<g><path style="opacity:1" fill="#efbe43" d="M 371.5,402.5 C 371.56,401.957 371.893,401.624 372.5,401.5C 373.5,421.822 373.833,442.156 373.5,462.5C 371.833,462.5 370.167,462.5 368.5,462.5C 364.345,461.258 360.678,459.258 357.5,456.5C 356.766,455.292 356.433,453.959 356.5,452.5C 354.097,452.552 351.764,452.219 349.5,451.5C 346.008,450.59 343.008,448.924 340.5,446.5C 340.443,445.391 340.11,444.391 339.5,443.5C 342.682,444.03 345.682,445.03 348.5,446.5C 348.33,447.822 348.663,448.989 349.5,450C 353.81,450.757 357.81,449.923 361.5,447.5C 362.167,447.833 362.833,448.167 363.5,448.5C 361.929,450.415 359.929,451.415 357.5,451.5C 357.5,452.5 357.5,453.5 357.5,454.5C 360.068,455.45 362.568,455.45 365,454.5C 365.925,455.047 366.758,455.713 367.5,456.5C 366.174,456.205 364.841,456.705 363.5,458C 366.43,458.606 369.263,459.44 372,460.5C 372.829,440.996 372.662,421.662 371.5,402.5 Z"/></g>
<g><path style="opacity:0.961" fill="#f4d58b" d="M 150.5,451.5 C 148.819,453.008 146.819,454.008 144.5,454.5C 145.784,452.386 147.784,451.386 150.5,451.5 Z"/></g>
<g><path style="opacity:1" fill="#f1ce77" d="M 349.5,451.5 C 351.764,452.219 354.097,452.552 356.5,452.5C 356.433,453.959 356.766,455.292 357.5,456.5C 354.489,455.331 351.822,453.664 349.5,451.5 Z"/></g>
<g><path style="opacity:1" fill="#f1cf78" d="M 272.5,456.5 C 273.167,456.5 273.833,456.5 274.5,456.5C 273.416,459.004 272.083,461.337 270.5,463.5C 270.468,460.924 271.135,458.591 272.5,456.5 Z"/></g>
<g><path style="opacity:1" fill="#efc04c" d="M 272.5,456.5 C 271.135,458.591 270.468,460.924 270.5,463.5C 268.259,464.3 267.259,465.966 267.5,468.5C 265.75,469.659 264.75,471.326 264.5,473.5C 263.226,476.76 261.56,479.76 259.5,482.5C 259.729,479.256 260.729,476.256 262.5,473.5C 262.392,472.558 262.059,471.725 261.5,471C 262.253,469.513 263.086,469.346 264,470.5C 265.983,466.243 267.816,461.909 269.5,457.5C 270.325,456.614 271.325,456.281 272.5,456.5 Z"/></g>
<g><path style="opacity:0.851" fill="#f1d28c" d="M 270.5,463.5 C 269.89,465.434 268.89,467.101 267.5,468.5C 267.259,465.966 268.259,464.3 270.5,463.5 Z"/></g>
<g><path style="opacity:0.494" fill="#f9dfa6" d="M 267.5,468.5 C 267.25,470.674 266.25,472.341 264.5,473.5C 264.75,471.326 265.75,469.659 267.5,468.5 Z"/></g>
<g><path style="opacity:1" fill="#f0cb77" d="M 233.5,472.5 C 237.885,474.249 239.885,477.582 239.5,482.5C 237.012,479.534 235.012,476.201 233.5,472.5 Z"/></g>
<g><path style="opacity:0.988" fill="#eccb71" d="M 259.5,482.5 C 258.89,484.434 257.89,486.101 256.5,487.5C 255.916,484.715 256.916,483.048 259.5,482.5 Z"/></g>
<g><path style="opacity:1" fill="#f1cc71" d="M 239.5,482.5 C 243.725,485.937 246.725,490.271 248.5,495.5C 250.124,495.64 251.29,494.973 252,493.5C 252.495,491.527 252.662,489.527 252.5,487.5C 253.833,487.5 255.167,487.5 256.5,487.5C 254.863,490.817 253.196,494.15 251.5,497.5C 250.167,497.5 248.833,497.5 247.5,497.5C 244.566,492.632 241.9,487.632 239.5,482.5 Z"/></g>
<g><path style="opacity:0.353" fill="#f9e0b4" d="M 247.5,497.5 C 248.833,497.5 250.167,497.5 251.5,497.5C 251.167,498.167 250.833,498.833 250.5,499.5C 249.833,499.5 249.167,499.5 248.5,499.5C 248.167,498.833 247.833,498.167 247.5,497.5 Z"/></g>
</svg>
